<?xml version="1.0" encoding="utf-8"?>
<svg version="1.1" xmlns="http://www.w3.org/2000/svg" xmlns:xlink="http://www.w3.org/1999/xlink" x="0px" y="0px"
	 viewBox="0 0 23.2 26.1" style="enable-background:new 0 0 23.2 26.1;" xml:space="preserve">
<path style="fill:#000;" d="M16.2,6.8H2.9C0.6,6.8,0,7.4,0,9.7v13.4c0,2.4,0.6,2.9,2.9,2.9h13.2c2.4,0,2.9-0.6,2.9-2.9V10.4h-1
	v12.7c0,1.7-0.4,2-2,2H3c-1.7,0-2-0.3-2-2V9.7c0-1.7,0.3-2,2-2h12.5L16.2,6.8z"/>
<path style="fill:#000;" d="M12.5,7.8h3.6c1.7,0,2,0.3,2,2v6.7l1-0.8V9.7c0-2.4-0.6-2.9-2.9-2.9h-2.6L12.5,7.8z"/>
</svg>
