<svg width="20" height="20" viewBox="0 0 20 20" fill="none" xmlns="http://www.w3.org/2000/svg">
<circle cx="10" cy="10" r="10" fill="#E10000"/>
<path d="M3.64242 13.708V15H9.11442V13.708C8.84842 13.727 8.18342 13.746 7.38542 13.746C7.34742 13.005 7.32842 12.169 7.32842 11.295V7.533C7.32842 6.507 7.30942 5.519 7.36642 4.702L6.79642 4.474C6.56842 4.778 5.97942 5.291 5.29542 5.614C4.51642 5.994 3.60442 6.241 3.05342 6.298L3.22442 7.609C3.87042 7.609 4.87742 7.286 5.67542 6.887C5.61842 7.267 5.61842 7.476 5.61842 7.685V13.746C4.85842 13.727 4.13642 13.727 3.64242 13.708ZM17.2996 13.309C16.1976 13.537 13.6326 13.651 12.6256 13.651L12.5686 13.575C14.2026 12.283 16.9006 9.699 16.9006 7.381C16.9006 5.69 15.6466 4.474 13.7466 4.474C12.1126 4.474 11.0106 5.253 10.6116 5.861L11.3336 6.792C11.8086 6.317 12.5116 5.918 13.3856 5.918C14.3166 5.918 15.2286 6.298 15.2286 7.666C15.2286 9.737 11.4286 13.005 9.96556 14.145L10.1366 15H16.9196L17.2996 13.309Z" fill="white"/>
</svg>
