<svg width="20" height="20" viewBox="0 0 20 20" fill="none" xmlns="http://www.w3.org/2000/svg">
<circle cx="10" cy="10" r="10" fill="#E10000"/>
<path d="M3.48471 13.708V15H8.95671V13.708C8.69071 13.727 8.02571 13.746 7.22771 13.746C7.18971 13.005 7.17071 12.169 7.17071 11.295V7.533C7.17071 6.507 7.15171 5.519 7.20871 4.702L6.63871 4.474C6.41071 4.778 5.82171 5.291 5.13771 5.614C4.35871 5.994 3.44671 6.241 2.89571 6.298L3.06671 7.609C3.71271 7.609 4.71971 7.286 5.51771 6.887C5.46071 7.267 5.46071 7.476 5.46071 7.685V13.746C4.70071 13.727 3.97871 13.727 3.48471 13.708ZM10.8528 7.134C10.8528 8.122 11.5938 8.882 12.4868 9.509C11.2328 10.25 10.1688 11.086 10.1688 12.492C10.1688 14.107 11.6318 15.266 13.5508 15.266C15.7358 15.266 17.3698 14.069 17.3698 12.302C17.3698 11.01 16.3628 10.136 15.1848 9.433C16.1728 8.806 16.9708 8.027 16.9708 6.944C16.9708 5.652 15.9448 4.474 14.0638 4.474C12.1258 4.474 10.8528 5.576 10.8528 7.134ZM15.3748 6.906C15.3748 7.647 14.9188 8.103 13.9308 8.692C13.1138 8.198 12.5058 7.704 12.5058 7.001C12.5058 6.317 13.1138 5.766 13.9118 5.766C14.6528 5.766 15.3748 6.07 15.3748 6.906ZM11.8408 12.34C11.8408 11.447 12.7338 10.82 13.6838 10.269C14.7668 10.915 15.6788 11.523 15.6788 12.321C15.6788 13.29 14.9568 13.841 13.7028 13.841C12.7148 13.841 11.8408 13.423 11.8408 12.34Z" fill="white"/>
</svg>
