<svg width="20" height="20" viewBox="0 0 20 20" fill="none" xmlns="http://www.w3.org/2000/svg">
<circle cx="10" cy="10" r="10" fill="#E10000"/>
<path d="M9.69214 13.309C8.59014 13.537 6.02514 13.651 5.01814 13.651L4.96114 13.575C6.59514 12.283 9.29314 9.699 9.29314 7.381C9.29314 5.69 8.03914 4.474 6.13914 4.474C4.50514 4.474 3.40314 5.253 3.00414 5.861L3.72614 6.792C4.20114 6.317 4.90414 5.918 5.77814 5.918C6.70914 5.918 7.62114 6.298 7.62114 7.666C7.62114 9.737 3.82114 13.005 2.35814 14.145L2.52914 15H9.31214L9.69214 13.309ZM14.6212 4.474C12.0372 4.474 10.8212 6.564 10.8212 10.098C10.8212 12.682 11.8092 15.266 14.3932 15.266C17.3762 15.266 18.1552 12.435 18.1552 9.661C18.1552 6.583 17.0722 4.474 14.6212 4.474ZM14.5452 5.994C15.9892 5.994 16.5022 7.343 16.5022 9.851C16.5022 12.378 15.9702 13.746 14.4692 13.746C13.0252 13.746 12.4932 12.416 12.4932 9.908C12.4932 7.457 13.1202 5.994 14.5452 5.994Z" fill="white"/>
</svg>
