<svg width="20" height="20" viewBox="0 0 20 20" fill="none" xmlns="http://www.w3.org/2000/svg">
<circle cx="10" cy="10" r="10" fill="#E10000"/>
<path d="M6.88348 5.595L7.60548 6.526C8.00448 6.26 8.63148 5.861 9.48648 5.861C10.3035 5.861 10.8165 6.222 10.8165 6.925C10.8165 7.951 9.41048 8.559 7.96648 8.92L8.17548 10.136C9.67648 9.908 11.3675 10.136 11.3675 11.618C11.3675 13.309 9.12548 13.784 6.92148 13.784L7.30148 15.266C10.6645 15.266 13.0585 14.031 13.0585 11.523C13.0585 9.946 11.6145 9.11 10.5885 9.11L10.5695 9.034C11.5575 8.654 12.4695 7.799 12.4695 6.659C12.4695 5.443 11.5765 4.474 9.94248 4.474C8.68848 4.474 7.45348 5.006 6.88348 5.595Z" fill="white"/>
</svg>
