<svg width="20" height="20" viewBox="0 0 20 20" fill="none" xmlns="http://www.w3.org/2000/svg">
<circle cx="10" cy="10" r="10" fill="#E10000"/>
<path d="M12.4139 4.759L11.5779 4.474C10.9509 5.5 7.11289 10.497 5.74489 12.245L5.93489 12.758H10.6849V15H12.4709C12.4329 14.392 12.3759 13.594 12.3569 12.758H14.0099V11.276C13.5349 11.314 12.9459 11.333 12.3189 11.371C12.3189 11.295 12.3189 11.238 12.3189 11.162L12.3569 7.799C12.3569 6.773 12.3379 5.557 12.4139 4.759ZM8.13889 11.409L8.10089 11.352C8.95589 10.231 9.86789 8.901 10.6089 7.818L10.6849 7.856V11.409C9.75389 11.428 8.84189 11.428 8.13889 11.409Z" fill="white"/>
</svg>
