<svg width="20" height="20" viewBox="0 0 20 20" fill="none" xmlns="http://www.w3.org/2000/svg">
<circle cx="10" cy="10" r="10" fill="#E10000"/>
<path d="M13.5168 11.789C13.5168 9.889 12.2628 8.616 10.3818 8.616C9.14678 8.616 8.42478 9.319 8.13978 9.623C8.74778 7.457 10.6288 6.374 12.5858 5.728L12.2058 4.436C9.03278 5.044 6.31578 7.818 6.31578 11.067C6.31578 13.575 7.55078 15.266 9.81178 15.266C12.0348 15.266 13.5168 13.632 13.5168 11.789ZM10.0398 10.098C11.1418 10.098 11.9208 10.706 11.9208 11.922C11.9208 13.119 11.0848 13.822 9.88778 13.822C8.57678 13.822 7.94978 12.72 7.94978 11.162V11.143C8.25378 10.63 8.97578 10.098 10.0398 10.098Z" fill="white"/>
</svg>
