<svg xmlns="http://www.w3.org/2000/svg" width="221" height="220" viewBox="0 0 221 220"><g><g><path fill="#fff" d="M220.088 212.882v-79.986a6.926 6.926 0 0 0-4.284-6.413 6.936 6.936 0 0 0-7.561 1.504l-18.273 24.429-36.06-36.06-.01.01c-.083-.081-.15-.17-.233-.254-10.297-10.294-26.992-10.294-37.286 0-10.297 10.297-10.297 26.993 0 37.289.08.085.17.152.252.233l-.01.01 36.058 36.059-24.43 18.273a6.94 6.94 0 0 0-1.51 7.57c.363.855.877 1.61 1.51 2.242a6.92 6.92 0 0 0 4.906 2.036l79.993-.002a7 7 0 0 0 4.913-2.032 6.975 6.975 0 0 0 2.025-4.908zM103.66 103.825c10.296-10.299 10.296-26.995 0-37.292-.083-.082-.171-.15-.253-.233l.01-.011-36.06-36.057L91.79 11.958A6.937 6.937 0 0 0 93.3 4.392a7.045 7.045 0 0 0-1.51-2.244A6.926 6.926 0 0 0 86.883.11L6.891.113a6.996 6.996 0 0 0-4.913 2.03A6.981 6.981 0 0 0-.046 7.052v79.99a6.925 6.925 0 0 0 4.283 6.41 6.933 6.933 0 0 0 7.56-1.504l18.275-24.427 36.06 36.057.009-.01c.08.082.147.169.233.254 10.297 10.297 26.992 10.297 37.287.003z"/></g></g></svg>